<svg xmlns="http://www.w3.org/2000/svg" viewBox="0 0 500 120" fill="none">
  <!-- Star + G icon -->
  <defs>
    <linearGradient id="auraGrad" x1="0" y1="0" x2="1" y2="1">
      <stop offset="0%" stop-color="#f97316"/>
      <stop offset="100%" stop-color="#d97706"/>
    </linearGradient>
  </defs>

  <!-- Star outline -->
  <path d="M40 15 L47 35 L68 35 L51 47 L57 68 L40 55 L23 68 L29 47 L12 35 L33 35 Z" 
        fill="url(#auraGrad)" opacity="0.15"/>
  <path d="M40 20 L45.5 35 L62 35 L49 44 L53.5 60 L40 50 L26.5 60 L31 44 L18 35 L34.5 35 Z" 
        fill="url(#auraGrad)"/>

  <!-- G letter inside star -->
  <path d="M34 38 C34 34 37 31 40 31 L46 31 L46 35 L41 35 C39.5 35 38.5 36 38.5 38 L38.5 48 C38.5 50 39.5 51 41 51 L44 51 L44 45 L40 45 L40 42 L48 42 L48 52 C48 54 46 55 44 55 L40 55 C36 55 34 52 34 48 Z" 
        fill="white"/>

  <!-- AURA text -->
  <text x="85" y="65" font-family="'Playfair Display', Georgia, serif" font-size="52" font-weight="900" fill="#111" letter-spacing="1">AURA</text>
  
  <!-- Tagline -->
  <text x="85" y="88" font-family="Inter, Arial, sans-serif" font-size="12" fill="#9ca3af" letter-spacing="3" font-weight="500">REPUTACIÓN DIGITAL</text>
</svg>
